<svg width="95" height="95" viewBox="0 0 95 95" fill="none" xmlns="http://www.w3.org/2000/svg">
<path fill-rule="evenodd" clip-rule="evenodd" d="M91 47.5C91 71.5244 71.5244 91 47.5 91C23.4756 91 4 71.5244 4 47.5C4 23.4756 23.4756 4 47.5 4C71.5244 4 91 23.4756 91 47.5ZM95 47.5C95 73.7335 73.7335 95 47.5 95C21.2665 95 0 73.7335 0 47.5C0 21.2665 21.2665 0 47.5 0C73.7335 0 95 21.2665 95 47.5ZM60.8276 34.6019C60.8276 41.6462 55.122 47.3519 48.0776 47.3519C41.0333 47.3519 35.3276 41.6462 35.3276 34.6019C35.3276 27.5575 41.0333 21.8519 48.0776 21.8519C55.122 21.8519 60.8276 27.5575 60.8276 34.6019ZM22.5776 66.4769C22.5776 57.9981 39.567 53.7269 48.0776 53.7269C56.5883 53.7269 73.5776 57.9981 73.5776 66.4769V69.6644C73.5776 71.4175 72.1433 72.8519 70.3901 72.8519H25.7651C24.012 72.8519 22.5776 71.4175 22.5776 69.6644V66.4769Z" fill="#4211AB"/>
</svg>
