<svg width="20" height="24" viewBox="0 0 20 24" fill="none" xmlns="http://www.w3.org/2000/svg">
<path d="M19.4737 22.7368H17.8947V5.68421C17.9025 5.54607 17.8715 5.40877 17.8067 5.29428C17.7418 5.17978 17.6468 5.0947 17.5368 5.05263L13.6842 3.12V22.7368H12.6316V0.631579C12.6316 0.464074 12.5761 0.303429 12.4774 0.184985C12.3787 0.0665413 12.2449 0 12.1053 0H2.63158C2.49199 0 2.35812 0.0665413 2.25942 0.184985C2.16071 0.303429 2.10526 0.464074 2.10526 0.631579V22.7368H0.526316C0.386728 22.7368 0.252858 22.8034 0.154154 22.9218C0.0554511 23.0403 0 23.2009 0 23.3684C0 23.5359 0.0554511 23.6966 0.154154 23.815C0.252858 23.9335 0.386728 24 0.526316 24H19.4737C19.6133 24 19.7471 23.9335 19.8458 23.815C19.9445 23.6966 20 23.5359 20 23.3684C20 23.2009 19.9445 23.0403 19.8458 22.9218C19.7471 22.8034 19.6133 22.7368 19.4737 22.7368ZM15.2632 7.57895H16.3158C16.4554 7.57895 16.5892 7.64549 16.688 7.76393C16.7867 7.88238 16.8421 8.04302 16.8421 8.21053C16.8394 8.37702 16.7831 8.53579 16.685 8.65354C16.5868 8.77129 16.4545 8.83887 16.3158 8.8421H15.2632C15.1244 8.83887 14.9921 8.77129 14.894 8.65354C14.7959 8.53579 14.7395 8.37702 14.7368 8.21053C14.7368 8.04302 14.7923 7.88238 14.891 7.76393C14.9897 7.64549 15.1236 7.57895 15.2632 7.57895ZM15.2632 11.3684H16.3158C16.4554 11.3684 16.5892 11.435 16.688 11.5534C16.7867 11.6718 16.8421 11.8325 16.8421 12C16.8421 12.1675 16.7867 12.3281 16.688 12.4466C16.5892 12.565 16.4554 12.6316 16.3158 12.6316H15.2632C15.1236 12.6316 14.9897 12.565 14.891 12.4466C14.7923 12.3281 14.7368 12.1675 14.7368 12C14.7368 11.8325 14.7923 11.6718 14.891 11.5534C14.9897 11.435 15.1236 11.3684 15.2632 11.3684ZM15.2632 15.1579H16.3158C16.4545 15.1611 16.5868 15.2287 16.685 15.3465C16.7831 15.4642 16.8394 15.623 16.8421 15.7895C16.8421 15.957 16.7867 16.1176 16.688 16.2361C16.5892 16.3545 16.4554 16.4211 16.3158 16.4211H15.2632C15.1236 16.4211 14.9897 16.3545 14.891 16.2361C14.7923 16.1176 14.7368 15.957 14.7368 15.7895C14.7395 15.623 14.7959 15.4642 14.894 15.3465C14.9921 15.2287 15.1244 15.1611 15.2632 15.1579ZM15.2632 18.9474H16.3158C16.4554 18.9474 16.5892 19.0139 16.688 19.1324C16.7867 19.2508 16.8421 19.4114 16.8421 19.5789C16.8421 19.7465 16.7867 19.9071 16.688 20.0255C16.5892 20.144 16.4554 20.2105 16.3158 20.2105H15.2632C15.1236 20.2105 14.9897 20.144 14.891 20.0255C14.7923 19.9071 14.7368 19.7465 14.7368 19.5789C14.7368 19.4114 14.7923 19.2508 14.891 19.1324C14.9897 19.0139 15.1236 18.9474 15.2632 18.9474ZM8.42105 3.78947H9.47368C9.61327 3.78947 9.74714 3.85601 9.84585 3.97446C9.94455 4.0929 10 4.25355 10 4.42105C10 4.58856 9.94455 4.7492 9.84585 4.86765C9.74714 4.98609 9.61327 5.05263 9.47368 5.05263H8.42105C8.28147 5.05263 8.14759 4.98609 8.04889 4.86765C7.95019 4.7492 7.89474 4.58856 7.89474 4.42105C7.89474 4.25355 7.95019 4.0929 8.04889 3.97446C8.14759 3.85601 8.28147 3.78947 8.42105 3.78947ZM8.42105 7.57895H9.47368C9.61327 7.57895 9.74714 7.64549 9.84585 7.76393C9.94455 7.88238 10 8.04302 10 8.21053C10 8.37803 9.94455 8.53868 9.84585 8.65712C9.74714 8.77556 9.61327 8.8421 9.47368 8.8421H8.42105C8.28147 8.8421 8.14759 8.77556 8.04889 8.65712C7.95019 8.53868 7.89474 8.37803 7.89474 8.21053C7.89474 8.04302 7.95019 7.88238 8.04889 7.76393C8.14759 7.64549 8.28147 7.57895 8.42105 7.57895ZM8.42105 11.3684H9.47368C9.61327 11.3684 9.74714 11.435 9.84585 11.5534C9.94455 11.6718 10 11.8325 10 12C10 12.1675 9.94455 12.3281 9.84585 12.4466C9.74714 12.565 9.61327 12.6316 9.47368 12.6316H8.42105C8.28147 12.6316 8.14759 12.565 8.04889 12.4466C7.95019 12.3281 7.89474 12.1675 7.89474 12C7.89474 11.8325 7.95019 11.6718 8.04889 11.5534C8.14759 11.435 8.28147 11.3684 8.42105 11.3684ZM8.42105 15.1579H9.47368C9.61327 15.1579 9.74714 15.2244 9.84585 15.3429C9.94455 15.4613 10 15.622 10 15.7895C10 15.957 9.94455 16.1176 9.84585 16.2361C9.74714 16.3545 9.61327 16.4211 9.47368 16.4211H8.42105C8.28147 16.4211 8.14759 16.3545 8.04889 16.2361C7.95019 16.1176 7.89474 15.957 7.89474 15.7895C7.89474 15.622 7.95019 15.4613 8.04889 15.3429C8.14759 15.2244 8.28147 15.1579 8.42105 15.1579ZM5.2 3.78947H6.31579C6.45538 3.78947 6.58925 3.85601 6.68795 3.97446C6.78665 4.0929 6.84211 4.25355 6.84211 4.42105C6.84211 4.58856 6.78665 4.7492 6.68795 4.86765C6.58925 4.98609 6.45538 5.05263 6.31579 5.05263H5.26316C5.12357 5.05263 4.9897 4.98609 4.891 4.86765C4.79229 4.7492 4.73684 4.58856 4.73684 4.42105C4.73684 4.25355 4.79229 4.0929 4.891 3.97446C4.9897 3.85601 5.12357 3.78947 5.26316 3.78947H5.2ZM5.2 7.57895H6.31579C6.45538 7.57895 6.58925 7.64549 6.68795 7.76393C6.78665 7.88238 6.84211 8.04302 6.84211 8.21053C6.84211 8.37803 6.78665 8.53868 6.68795 8.65712C6.58925 8.77556 6.45538 8.8421 6.31579 8.8421H5.26316C5.12357 8.8421 4.9897 8.77556 4.891 8.65712C4.79229 8.53868 4.73684 8.37803 4.73684 8.21053C4.73684 8.04302 4.79229 7.88238 4.891 7.76393C4.9897 7.64549 5.12357 7.57895 5.26316 7.57895H5.2ZM5.2 11.3684H6.31579C6.45538 11.3684 6.58925 11.435 6.68795 11.5534C6.78665 11.6718 6.84211 11.8325 6.84211 12C6.84211 12.1675 6.78665 12.3281 6.68795 12.4466C6.58925 12.565 6.45538 12.6316 6.31579 12.6316H5.26316C5.12357 12.6316 4.9897 12.565 4.891 12.4466C4.79229 12.3281 4.73684 12.1675 4.73684 12C4.73684 11.8325 4.79229 11.6718 4.891 11.5534C4.9897 11.435 5.12357 11.3684 5.26316 11.3684H5.2ZM5.2 15.1579H6.31579C6.45538 15.1579 6.58925 15.2244 6.68795 15.3429C6.78665 15.4613 6.84211 15.622 6.84211 15.7895C6.84211 15.957 6.78665 16.1176 6.68795 16.2361C6.58925 16.3545 6.45538 16.4211 6.31579 16.4211H5.26316C5.12357 16.4211 4.9897 16.3545 4.891 16.2361C4.79229 16.1176 4.73684 15.957 4.73684 15.7895C4.73684 15.622 4.79229 15.4613 4.891 15.3429C4.9897 15.2244 5.12357 15.1579 5.26316 15.1579H5.2ZM7.89474 22.7368V20.2105H6.84211V22.7368H5.78947V19.5411C5.79753 19.3802 5.85652 19.2291 5.95436 19.1188C6.05221 19.0084 6.1815 18.9471 6.31579 18.9474H8.42105C8.56064 18.9474 8.69451 19.0139 8.79321 19.1324C8.89192 19.2508 8.94737 19.4114 8.94737 19.5789V22.7368H7.89474Z" fill="#0F3D3E"/>
</svg>
