<svg width="29" height="29" viewBox="0 0 29 29" fill="none" xmlns="http://www.w3.org/2000/svg">
<g clip-path="url(#clip0_389_72)">
<path d="M14.5069 0.219696C8.54411 0.219696 6.80021 0.225848 6.46123 0.253969C5.23755 0.355688 4.4761 0.548363 3.64655 0.961393C3.00726 1.27885 2.50307 1.64685 2.00547 2.1627C1.09924 3.10344 0.550019 4.2608 0.351199 5.63654C0.254535 6.30442 0.226415 6.44064 0.220703 9.85209C0.218506 10.9892 0.220703 12.4858 0.220703 14.4932C0.220703 20.4514 0.227294 22.1936 0.255853 22.5319C0.354714 23.7227 0.541451 24.4718 0.936893 25.2913C1.69263 26.8599 3.13599 28.0375 4.8364 28.4769C5.42517 28.6285 6.07545 28.712 6.91027 28.7515C7.26398 28.7669 10.8691 28.7779 14.4764 28.7779C18.0837 28.7779 21.691 28.7735 22.036 28.7559C23.0026 28.7104 23.5639 28.6351 24.1845 28.4747C25.8959 28.0331 27.3129 26.8731 28.084 25.2825C28.4718 24.4828 28.6684 23.7051 28.7574 22.5765C28.7767 22.3304 28.7848 18.4073 28.7848 14.4895C28.7848 10.5709 28.7761 6.65506 28.7567 6.409C28.6666 5.26218 28.47 4.49104 28.0697 3.67597C27.7413 3.00875 27.3766 2.51048 26.8472 2.001C25.9023 1.09848 24.7467 0.549241 23.3697 0.350635C22.7025 0.254188 22.5696 0.225628 19.1556 0.219696H14.5069Z" fill="url(#paint0_radial_389_72)"/>
<path d="M14.5069 0.219696C8.54411 0.219696 6.80021 0.225848 6.46123 0.253969C5.23755 0.355688 4.4761 0.548363 3.64655 0.961393C3.00726 1.27885 2.50307 1.64685 2.00547 2.1627C1.09924 3.10344 0.550019 4.2608 0.351199 5.63654C0.254535 6.30442 0.226415 6.44064 0.220703 9.85209C0.218506 10.9892 0.220703 12.4858 0.220703 14.4932C0.220703 20.4514 0.227294 22.1936 0.255853 22.5319C0.354714 23.7227 0.541451 24.4718 0.936893 25.2913C1.69263 26.8599 3.13599 28.0375 4.8364 28.4769C5.42517 28.6285 6.07545 28.712 6.91027 28.7515C7.26398 28.7669 10.8691 28.7779 14.4764 28.7779C18.0837 28.7779 21.691 28.7735 22.036 28.7559C23.0026 28.7104 23.5639 28.6351 24.1845 28.4747C25.8959 28.0331 27.3129 26.8731 28.084 25.2825C28.4718 24.4828 28.6684 23.7051 28.7574 22.5765C28.7767 22.3304 28.7848 18.4073 28.7848 14.4895C28.7848 10.5709 28.7761 6.65506 28.7567 6.409C28.6666 5.26218 28.47 4.49104 28.0697 3.67597C27.7413 3.00875 27.3766 2.51048 26.8472 2.001C25.9023 1.09848 24.7467 0.549241 23.3697 0.350635C22.7025 0.254188 22.5696 0.225628 19.1556 0.219696H14.5069Z" fill="url(#paint1_radial_389_72)"/>
<path d="M14.5004 3.95456C11.6365 3.95456 11.2771 3.96708 10.1522 4.01827C9.02963 4.06968 8.26335 4.24742 7.59286 4.5082C6.89929 4.77754 6.31096 5.13785 5.72483 5.72422C5.13826 6.31037 4.77796 6.89872 4.50775 7.59208C4.24631 8.26282 4.06836 9.02934 4.01784 10.1516C3.96753 11.2764 3.95435 11.636 3.95435 14.5C3.95435 17.364 3.96709 17.7223 4.01806 18.8472C4.06968 19.9698 4.24741 20.7361 4.50797 21.4066C4.77753 22.1002 5.13782 22.6886 5.72417 23.2747C6.31008 23.8613 6.89842 24.2225 7.59154 24.4918C8.26247 24.7526 9.02897 24.9303 10.1514 24.9818C11.2762 25.0329 11.6354 25.0455 14.499 25.0455C17.3631 25.0455 17.7215 25.0329 18.8463 24.9818C19.9689 24.9303 20.736 24.7526 21.407 24.4918C22.1003 24.2225 22.6878 23.8613 23.2737 23.2747C23.8603 22.6886 24.2206 22.1002 24.4908 21.4068C24.75 20.7361 24.928 19.9696 24.9807 18.8474C25.0312 17.7225 25.0444 17.364 25.0444 14.5C25.0444 11.636 25.0312 11.2766 24.9807 10.1518C24.928 9.02912 24.75 8.26282 24.4908 7.5923C24.2206 6.89872 23.8603 6.31037 23.2737 5.72422C22.6871 5.13763 22.1005 4.77732 21.4063 4.5082C20.7341 4.24742 19.9674 4.06968 18.8447 4.01827C17.7199 3.96708 17.3618 3.95456 14.4971 3.95456H14.5004ZM13.5544 5.85494C13.8351 5.8545 14.1484 5.85494 14.5004 5.85494C17.3159 5.85494 17.6496 5.86504 18.7615 5.91557C19.7896 5.96259 20.3476 6.13439 20.7194 6.27873C21.2115 6.46987 21.5623 6.69835 21.9312 7.06744C22.3002 7.43654 22.5287 7.78805 22.7203 8.28017C22.8646 8.65146 23.0366 9.20949 23.0834 10.2377C23.134 11.3493 23.145 11.6833 23.145 14.4976C23.145 17.3119 23.134 17.6459 23.0834 18.7575C23.0364 19.7857 22.8646 20.3437 22.7203 20.715C22.5292 21.2071 22.3002 21.5576 21.9312 21.9264C21.5621 22.2955 21.2117 22.524 20.7194 22.7151C20.3481 22.8601 19.7896 23.0315 18.7615 23.0785C17.6498 23.129 17.3159 23.14 14.5004 23.14C11.6846 23.14 11.3509 23.129 10.2392 23.0785C9.2111 23.0311 8.65308 22.8593 8.28115 22.7149C7.78904 22.5238 7.43754 22.2953 7.06846 21.9262C6.69938 21.5571 6.4709 21.2065 6.27933 20.7141C6.13499 20.3429 5.96297 19.7848 5.91618 18.7566C5.86565 17.645 5.85555 17.311 5.85555 14.495C5.85555 11.6789 5.86565 11.3467 5.91618 10.235C5.96319 9.20685 6.13499 8.64882 6.27933 8.2771C6.47046 7.78498 6.69938 7.43346 7.06846 7.06437C7.43754 6.69528 7.78904 6.46679 8.28115 6.27522C8.65286 6.13022 9.2111 5.95885 10.2392 5.91162C11.212 5.86768 11.589 5.8545 13.5544 5.8523V5.85494ZM20.1293 7.60592C19.4306 7.60592 18.8638 8.17208 18.8638 8.87094C18.8638 9.56957 19.4306 10.1364 20.1293 10.1364C20.8279 10.1364 21.3947 9.56957 21.3947 8.87094C21.3947 8.1723 20.8279 7.60548 20.1293 7.60548V7.60592ZM14.5004 9.08448C11.5097 9.08448 9.08499 11.5093 9.08499 14.5C9.08499 17.4907 11.5097 19.9144 14.5004 19.9144C17.491 19.9144 19.9148 17.4907 19.9148 14.5C19.9148 11.5093 17.491 9.08448 14.5004 9.08448ZM14.5004 10.9849C16.4415 10.9849 18.0154 12.5586 18.0154 14.5C18.0154 16.4413 16.4415 18.0152 14.5004 18.0152C12.559 18.0152 10.9853 16.4413 10.9853 14.5C10.9853 12.5586 12.559 10.9849 14.5004 10.9849Z" fill="white"/>
</g>
<defs>
<radialGradient id="paint0_radial_389_72" cx="0" cy="0" r="1" gradientUnits="userSpaceOnUse" gradientTransform="translate(7.80737 30.9775) rotate(-90) scale(28.3033 26.3307)">
<stop stop-color="#0F3D3E"/>
<stop offset="0.1" stop-color="#0F3D3E"/>
<stop offset="0.5" stop-color="#0F3D3E"/>
<stop offset="1" stop-color="#0F3D3E"/>
</radialGradient>
<radialGradient id="paint1_radial_389_72" cx="0" cy="0" r="1" gradientUnits="userSpaceOnUse" gradientTransform="translate(-4.56508 2.27698) rotate(78.678) scale(12.6518 52.1629)">
<stop stop-color="#0F3D3E"/>
<stop offset="0.128" stop-color="#0F3D3E"/>
<stop offset="1" stop-color="#0F3D3E"/>
</radialGradient>
<clipPath id="clip0_389_72">
<rect width="29" height="29" fill="white"/>
</clipPath>
</defs>
</svg>
