<svg width="55" height="32" viewBox="0 0 55 32" fill="none" xmlns="http://www.w3.org/2000/svg">
<path fill-rule="evenodd" clip-rule="evenodd" d="M12.6603 15.9163L21.5183 24.6543L26.0762 20.1581L23.2848 17.4045C22.5456 16.6753 22.5456 15.4931 23.2848 14.764L26.0762 12.0103L21.348 7.34621L12.6603 15.9163ZM27.5 13.4149L24.794 16.0842L27.5 18.7536L30.2061 16.0842L27.5 13.4149ZM28.9239 20.1581L31.7153 17.4045C32.4545 16.6753 32.4545 15.4931 31.7153 14.764L28.9239 12.0103L32.8836 8.10426L40.8029 15.9163L32.7133 23.8962L28.9239 20.1581ZM27.5 21.5627L22.9422 26.0588L26.7316 29.7969L31.2895 25.3008L27.5 21.5627ZM32.7133 26.7053L28.07 31.2857C27.3308 32.0149 26.1324 32.0149 25.3932 31.2857L21.5183 27.4634L17.4732 31.4537C16.734 32.1829 15.5356 32.1829 14.7964 31.4537L0.554249 17.4045C-0.184926 16.6753 -0.184927 15.4931 0.554248 14.764L14.7964 0.71477C15.5356 -0.0143919 16.734 -0.0143924 17.4732 0.71477L21.348 4.53714L25.3932 0.546783C26.1324 -0.18238 27.3308 -0.18238 28.07 0.546782L32.8836 5.29518L37.5269 0.71477C38.2661 -0.0143919 39.4645 -0.0143924 40.2037 0.71477L54.4458 14.764C55.185 15.4931 55.185 16.6753 54.4458 17.4045L40.2037 31.4537C39.4645 32.1829 38.2661 32.1829 37.5269 31.4537L32.7133 26.7053ZM34.1371 25.3008L38.8653 29.9649L52.9366 16.0842L38.8653 2.20358L34.3074 6.69972L42.3121 14.596C43.0513 15.3251 43.0513 16.5074 42.3121 17.2365L34.1371 25.3008ZM31.4598 6.69972L26.7316 2.03559L22.7719 5.94168L27.5 10.6058L31.4598 6.69972ZM16.1348 29.9649L20.0945 26.0588L11.1511 17.2365C10.4119 16.5074 10.4119 15.3251 11.151 14.596L19.9242 5.94167L16.1348 2.20358L2.0635 16.0842L16.1348 29.9649Z" fill="#38219C"/>
</svg>
