<svg width="22" height="92" viewBox="0 0 22 92" fill="none" xmlns="http://www.w3.org/2000/svg">
<path d="M9.74243 15.2085V47.0958C9.74243 47.0958 13.8412 54.5238 17.3922 62.5781C21.2254 71.2727 21.3766 73.6499 20.6706 76.789C19.3107 82.8361 16.2993 83.105 16.2993 83.105" stroke="white" stroke-width="2"/>
<path d="M9.74243 1C7.55673 1 0.999632 6.08726 0.999751 12.0506C0.99987 18.0139 0.999751 32.402 0.999751 37.3144C0.999751 42.2268 7.55666 46.7883 8.64948 46.7883C9.7423 46.7883 0.999751 51.3499 0.999751 56.2623C0.999751 61.1747 0.999751 75.5593 0.999751 81.5261C0.999751 87.4929 8.89234 90.9983 9.74236 91" stroke="white" stroke-width="2"/>
</svg>
