<svg width="22" height="28" viewBox="0 0 22 28" fill="none" xmlns="http://www.w3.org/2000/svg">
<path d="M13.75 16.8H12.375V15.4C12.375 15.0287 12.2301 14.6726 11.9723 14.4101C11.7144 14.1475 11.3647 14 11 14C10.6353 14 10.2856 14.1475 10.0277 14.4101C9.76987 14.6726 9.625 15.0287 9.625 15.4V16.8H8.25C7.88533 16.8 7.53559 16.9475 7.27773 17.2101C7.01987 17.4726 6.875 17.8287 6.875 18.2C6.875 18.5713 7.01987 18.9274 7.27773 19.1899C7.53559 19.4525 7.88533 19.6 8.25 19.6H9.625V21C9.625 21.3713 9.76987 21.7274 10.0277 21.99C10.2856 22.2525 10.6353 22.4 11 22.4C11.3647 22.4 11.7144 22.2525 11.9723 21.99C12.2301 21.7274 12.375 21.3713 12.375 21V19.6H13.75C14.1147 19.6 14.4644 19.4525 14.7223 19.1899C14.9801 18.9274 15.125 18.5713 15.125 18.2C15.125 17.8287 14.9801 17.4726 14.7223 17.2101C14.4644 16.9475 14.1147 16.8 13.75 16.8ZM22 9.716C21.9857 9.58739 21.958 9.46068 21.9175 9.338V9.212C21.8514 9.06805 21.7632 8.93573 21.6562 8.82L13.4062 0.42C13.2926 0.311103 13.1626 0.221313 13.0213 0.154H12.8975C12.7578 0.0724377 12.6036 0.0200819 12.4438 0H4.125C3.03098 0 1.98177 0.442499 1.20818 1.23015C0.434597 2.0178 0 3.08609 0 4.2V23.8C0 24.9139 0.434597 25.9822 1.20818 26.7698C1.98177 27.5575 3.03098 28 4.125 28H17.875C18.969 28 20.0182 27.5575 20.7918 26.7698C21.5654 25.9822 22 24.9139 22 23.8V9.8C22 9.8 22 9.8 22 9.716ZM13.75 4.774L17.3113 8.4H15.125C14.7603 8.4 14.4106 8.2525 14.1527 7.98995C13.8949 7.7274 13.75 7.3713 13.75 7V4.774ZM19.25 23.8C19.25 24.1713 19.1051 24.5274 18.8473 24.7899C18.5894 25.0525 18.2397 25.2 17.875 25.2H4.125C3.76033 25.2 3.41059 25.0525 3.15273 24.7899C2.89487 24.5274 2.75 24.1713 2.75 23.8V4.2C2.75 3.8287 2.89487 3.4726 3.15273 3.21005C3.41059 2.9475 3.76033 2.8 4.125 2.8H11V7C11 8.11391 11.4346 9.1822 12.2082 9.96985C12.9818 10.7575 14.031 11.2 15.125 11.2H19.25V23.8Z" fill="white"/>
</svg>
