<svg width="80" height="80" viewBox="0 0 80 80" fill="none" xmlns="http://www.w3.org/2000/svg">
<g clip-path="url(#clip0_680_3718)">
<path d="M40.0193 0.606049C23.5701 0.606049 18.7594 0.623018 17.8243 0.700594C14.4486 0.9812 12.3481 1.51272 10.0596 2.65211C8.29606 3.52787 6.90519 4.54302 5.5325 5.96605C3.03258 8.5612 1.51747 11.7539 0.969006 15.5491C0.702347 17.3915 0.624774 17.7673 0.609017 27.1782C0.602956 30.3151 0.609017 34.4436 0.609017 39.9812C0.609017 56.4176 0.627198 61.2236 0.705984 62.157C0.978703 65.4418 1.49384 67.5085 2.58471 69.7691C4.6695 74.0964 8.6512 77.3448 13.342 78.557C14.9662 78.9751 16.76 79.2054 19.063 79.3145C20.0387 79.357 29.9839 79.3873 39.9351 79.3873C49.8863 79.3873 59.8375 79.3751 60.789 79.3267C63.4556 79.2012 65.004 78.9933 66.7161 78.5509C71.4372 77.3327 75.3461 74.1327 77.4734 69.7448C78.543 67.5388 79.0854 65.3933 79.3309 62.28C79.3842 61.6012 79.4066 50.7788 79.4066 39.9709C79.4066 29.1612 79.3824 18.3588 79.3291 17.68C79.0806 14.5164 78.5382 12.3891 77.434 10.1406C76.5279 8.29999 75.5219 6.92544 74.0613 5.51999C71.4548 3.03029 68.267 1.51514 64.4683 0.967261C62.6277 0.7012 62.2611 0.622412 52.8432 0.606049H40.0193Z" fill="#4211AB"/>
<path d="M40.0193 0.606049C23.5701 0.606049 18.7594 0.623018 17.8243 0.700594C14.4486 0.9812 12.3481 1.51272 10.0596 2.65211C8.29606 3.52787 6.90519 4.54302 5.5325 5.96605C3.03258 8.5612 1.51747 11.7539 0.969006 15.5491C0.702347 17.3915 0.624774 17.7673 0.609017 27.1782C0.602956 30.3151 0.609017 34.4436 0.609017 39.9812C0.609017 56.4176 0.627198 61.2236 0.705984 62.157C0.978703 65.4418 1.49384 67.5085 2.58471 69.7691C4.6695 74.0964 8.6512 77.3448 13.342 78.557C14.9662 78.9751 16.76 79.2054 19.063 79.3145C20.0387 79.357 29.9839 79.3873 39.9351 79.3873C49.8863 79.3873 59.8375 79.3751 60.789 79.3267C63.4556 79.2012 65.004 78.9933 66.7161 78.5509C71.4372 77.3327 75.3461 74.1327 77.4734 69.7448C78.543 67.5388 79.0854 65.3933 79.3309 62.28C79.3842 61.6012 79.4066 50.7788 79.4066 39.9709C79.4066 29.1612 79.3824 18.3588 79.3291 17.68C79.0806 14.5164 78.5382 12.3891 77.434 10.1406C76.5279 8.29999 75.5219 6.92544 74.0613 5.51999C71.4548 3.03029 68.267 1.51514 64.4683 0.967261C62.6277 0.7012 62.2611 0.622412 52.8432 0.606049H40.0193Z" fill="#4211AB"/>
<path d="M40.0013 10.9091C32.1009 10.9091 31.1094 10.9436 28.0065 11.0848C24.9096 11.2267 22.7957 11.717 20.9461 12.4364C19.0328 13.1794 17.4098 14.1733 15.7929 15.7909C14.1748 17.4079 13.1809 19.0309 12.4354 20.9436C11.7142 22.7939 11.2233 24.9085 11.084 28.0042C10.9452 31.1073 10.9088 32.0994 10.9088 40C10.9088 47.9006 10.944 48.8891 11.0846 51.9921C11.227 55.0891 11.7173 57.203 12.436 59.0527C13.1797 60.9661 14.1736 62.5891 15.7911 64.2061C17.4074 65.8242 19.0304 66.8206 20.9424 67.5636C22.7933 68.283 24.9078 68.7733 28.0041 68.9151C31.107 69.0564 32.0979 69.0909 39.9976 69.0909C47.8986 69.0909 48.8871 69.0564 51.99 68.9151C55.0869 68.7733 57.2032 68.283 59.054 67.5636C60.9667 66.8206 62.5872 65.8242 64.2036 64.2061C65.8217 62.5891 66.8156 60.9661 67.561 59.0533C68.2762 57.203 68.7671 55.0885 68.9125 51.9927C69.0519 48.8897 69.0883 47.9006 69.0883 40C69.0883 32.0994 69.0519 31.1079 68.9125 28.0048C68.7671 24.9079 68.2762 22.7939 67.561 20.9442C66.8156 19.0309 65.8217 17.4079 64.2036 15.7909C62.5854 14.1727 60.9673 13.1788 59.0522 12.4364C57.1977 11.717 55.0826 11.2267 51.9858 11.0848C48.8828 10.9436 47.895 10.9091 39.9922 10.9091H40.0013ZM37.3916 16.1515C38.1662 16.1503 39.0304 16.1515 40.0013 16.1515C47.7683 16.1515 48.6889 16.1794 51.7561 16.3188C54.5923 16.4485 56.1317 16.9224 57.1571 17.3206C58.5146 17.8479 59.4825 18.4782 60.5 19.4964C61.5182 20.5145 62.1485 21.4842 62.6769 22.8418C63.0751 23.8661 63.5496 25.4055 63.6787 28.2418C63.8181 31.3085 63.8484 32.2297 63.8484 39.9933C63.8484 47.757 63.8181 48.6782 63.6787 51.7448C63.549 54.5812 63.0751 56.1206 62.6769 57.1448C62.1497 58.5024 61.5182 59.4691 60.5 60.4867C59.4819 61.5048 58.5153 62.1351 57.1571 62.6624C56.1329 63.0624 54.5923 63.5351 51.7561 63.6648C48.6895 63.8042 47.7683 63.8345 40.0013 63.8345C32.2336 63.8345 31.313 63.8042 28.2465 63.6648C25.4102 63.5339 23.8708 63.06 22.8448 62.6618C21.4873 62.1345 20.5176 61.5042 19.4995 60.4861C18.4813 59.4679 17.851 58.5006 17.3226 57.1424C16.9244 56.1182 16.4499 54.5788 16.3208 51.7424C16.1814 48.6758 16.1535 47.7545 16.1535 39.9861C16.1535 32.2176 16.1814 31.3012 16.3208 28.2345C16.4505 25.3982 16.9244 23.8588 17.3226 22.8333C17.8498 21.4758 18.4813 20.5061 19.4995 19.4879C20.5176 18.4697 21.4873 17.8394 22.8448 17.3109C23.8702 16.9109 25.4102 16.4382 28.2465 16.3079C30.93 16.1867 31.97 16.1503 37.3916 16.1442V16.1515ZM55.5293 20.9818C53.6021 20.9818 52.0385 22.5436 52.0385 24.4715C52.0385 26.3988 53.6021 27.9624 55.5293 27.9624C57.4565 27.9624 59.0201 26.3988 59.0201 24.4715C59.0201 22.5442 57.4565 20.9806 55.5293 20.9806V20.9818ZM40.0013 25.0606C31.7512 25.0606 25.0623 31.7497 25.0623 40C25.0623 48.2503 31.7512 54.9364 40.0013 54.9364C48.2513 54.9364 54.9378 48.2503 54.9378 40C54.9378 31.7497 48.2513 25.0606 40.0013 25.0606ZM40.0013 30.303C45.3563 30.303 49.6979 34.6442 49.6979 40C49.6979 45.3551 45.3563 49.697 40.0013 49.697C34.6457 49.697 30.3046 45.3551 30.3046 40C30.3046 34.6442 34.6457 30.303 40.0013 30.303Z" fill="white"/>
</g>
<defs>
<clipPath id="clip0_680_3718">
<rect width="80" height="80" fill="white"/>
</clipPath>
</defs>
</svg>
