<svg width="496" height="590" viewBox="0 0 496 590" fill="none" xmlns="http://www.w3.org/2000/svg">
<path d="M439.396 360.089H433.511L437.631 391.719C438.219 391.082 440.691 389.601 445.869 388.777C451.048 387.953 472.35 402.263 482.354 409.521C482.825 391.749 453.912 369.162 439.396 360.089Z" fill="#FFBBD6"/>
<path d="M439.388 357.935V360.086C454.612 370.33 469.556 386.23 476.679 396.527C481.219 403.091 480.197 405.272 481.778 409.085C485.572 415.87 493.009 419.828 495.775 420.284C496.596 409.614 486.838 390.372 481.093 384.9C476.496 380.522 471.031 370.612 468.872 366.205V360.086C466.684 356.775 461.048 349.716 456.014 347.965C450.98 346.214 442.832 353.882 439.388 357.935Z" fill="#100862"/>
<path d="M79.8213 563.659L86.7666 555.846C78.0438 551.05 59.3083 543.816 54.1491 553.241C48.9898 562.667 26.4511 572.96 15.8266 576.929C15.6612 577.963 17.6621 580.377 26.9885 581.766C36.3148 583.155 66.0964 570.273 79.8213 563.659Z" fill="#FFBBD6"/>
<path d="M81.184 585.378C88.8101 579.877 83.4446 568.665 79.8086 563.746L53.4805 574.681C32.418 583.429 19.5796 579.879 15.7932 577.011C2.30202 578.411 -0.491035 582.092 0.0657959 583.71C4.1386 588.355 26.4754 589.135 37.1346 588.945C38.4074 588.233 43.4454 587.12 45.8053 586.653C50.6311 586.573 60.601 586.462 61.8737 586.653C63.1465 586.844 64.048 588.26 64.3397 588.945C68.5947 589.125 77.1141 589.378 77.1512 588.945C77.1883 588.512 79.8552 586.387 81.184 585.378Z" fill="#100862"/>
<path d="M143.13 328.626C142.662 324.088 147.01 248.99 149.485 213.997L161.569 173.306L176.123 213.997L181.84 245.295L143.13 328.626Z" fill="#928FFF"/>
<path d="M255.325 451.499C247.357 450.774 227.234 401.748 218.168 377.325L236.762 343.97L310.787 359.137L314.182 374.078C321.064 378.606 396.432 363.891 433.256 355.968L446.159 392.867C424.654 406.45 265.285 452.404 255.325 451.499Z" fill="#6437C6"/>
<path d="M180.574 247.718C185.656 249.104 199.598 249.07 205.921 248.695L237.604 352.251L94.7169 557.691L43.5581 555.09C54.3968 530.089 77.8952 475.837 85.1788 458.842C94.2833 437.598 129.515 354.827 132.565 347.201C135.005 341.1 165.568 278.309 180.574 247.718Z" fill="#7851CE"/>
<path d="M178.756 251.434L180.575 247.714L211.601 242.302L242.163 346.213L213.768 386.471L199.177 253.681C192.692 253.909 182.861 252.278 178.756 251.434Z" fill="#6D46C0"/>
<path d="M176.583 245.779C178.984 249.381 197.678 249.194 206.726 248.65L208.292 233.644C196.352 228.99 172.864 220.608 174.43 224.314C175.996 228.02 176.518 240.168 176.583 245.779Z" fill="white"/>
<path d="M349.301 314.475C348.913 299.947 279.427 189.775 244.732 136.504L235.982 139.654L258.016 244.256L204.505 232.392L213.706 337.962C214.594 338.446 221.599 342.611 242.52 355.396C268.67 371.376 299.179 366.534 321.698 357.817C339.712 350.843 347.606 326.017 349.301 314.475Z" fill="#928FFF"/>
<path d="M59.5401 89.0192C57.3283 92.8575 58.6185 101.19 59.5401 104.876L43.7645 120.733L39.8612 106.421C40.2949 105.201 38.8529 101.298 29.6151 95.4433C20.3774 89.5884 20.6159 87.3115 21.8899 86.9049C17.7915 83.9774 19.4775 81.4566 20.8328 80.5621C15.9537 76.3986 18.5288 74.2193 20.4262 73.65L17.9053 70.56V67.1445C24.709 67.7138 39.4384 68.6734 43.9271 67.9578C49.538 67.0633 53.7666 70.9666 55.3116 72.9182C56.8566 74.8698 62.3049 84.2214 59.5401 89.0192Z" fill="#FFBBD6"/>
<path d="M48.8032 76.9184L44.8839 72.7773L44.4034 98.5856H55.7915L49.8232 90.3122L48.5814 85.4966L48.8032 76.9184Z" fill="#EF8FBA"/>
<path d="M147.543 132.634C152.373 128.148 170.593 112.309 179.099 104.95L179.891 108.911L161.776 174.902L156.169 193.88L139.779 207.682C131.296 210.702 110.277 217.861 94.0595 222.347C73.7877 227.954 73.7877 212.858 66.8867 196.899C61.3659 184.133 48.4839 139.822 42.7331 119.263L59.5544 103.304L70.3372 124.87C74.9379 133.496 85.5195 153.595 91.0403 164.982C97.9414 179.216 104.842 168.433 112.175 162.826C119.507 157.219 141.504 138.241 147.543 132.634Z" fill="#8380FC"/>
<path d="M96.6474 186.117C100.098 178.871 131.153 187.411 146.249 192.586L141.073 211.133C139.204 209.551 134.862 206.388 132.446 206.388C129.427 206.388 128.996 206.388 122.526 207.251C116.057 208.114 111.743 205.095 102.686 198.625C95.4397 193.449 95.641 188.129 96.6474 186.117Z" fill="#FFBBD6"/>
<path d="M141.567 191.042L145.726 192.418C143.888 198.525 140.248 210.844 139.946 210.368C139.645 209.892 137.08 208.223 135.892 207.56C135.892 207.56 138.243 204.999 139.833 199.888C141.423 194.777 141.567 191.042 141.567 191.042Z" fill="#EF8FBA"/>
<path d="M178.597 108.048C186.878 113.914 197.287 103.448 201.457 97.6968L210.514 199.056C209.939 199.918 207.495 201.902 202.319 202.938C197.144 203.973 176.009 198.481 166.089 195.605C164.508 187.698 160.827 169.813 158.757 161.531C156.169 151.18 156.169 144.71 158.757 138.24C160.827 133.065 172.846 115.956 178.597 108.048Z" fill="white"/>
<path d="M186.792 34.2938C179.604 34.8689 164.105 35.5015 159.619 33.4312C157.894 39.3258 153.495 52.9266 153.15 58.4474C152.718 65.3484 155.306 78.2879 164.795 77.8565C171.76 77.54 172.964 77.3202 173.004 77.064C174.162 82.8433 176.791 94.9478 178.166 97.697C179.546 100.457 179.316 105.604 178.597 108.049C180.179 109.774 184.722 112.362 190.243 108.911C195.764 105.461 200.738 99.2785 202.319 96.8344C198.006 94.9654 189.035 89.8471 189.38 82.601C189.811 73.5434 192.399 69.6616 193.262 68.3676C194.125 67.0737 198.574 62.3744 200.163 61.4666C203.182 59.7413 203.123 55.0007 201.888 52.8403C200.654 50.6799 196.137 51.4026 194.987 51.5464C191.968 49.9649 186.102 44.3003 186.792 34.2938Z" fill="#FFBBD6"/>
<path d="M186.792 34.2938C175.06 35.3289 163.789 34.15 159.619 33.4312L158.757 35.5877C163.587 37.658 177.878 37.4568 184.204 36.8817C184.204 44.1278 191.105 50.9713 194.987 53.7029C196.137 53.2716 198.438 52.5168 200.594 54.1342C201.974 55.1694 200.163 59.5976 199.3 61.4666C200.594 60.8915 203.096 58.6199 202.751 54.1342C202.406 49.6486 197.431 50.54 194.987 51.5464C189.121 47.4057 187.08 38.3194 186.792 34.2938Z" fill="#EF8FBA"/>
<circle cx="4.31315" cy="4.31315" r="4.31315" transform="matrix(-1 0 0 1 179.891 55.8594)" fill="#EF8FBA"/>
<path d="M235.531 118.4C228.285 102.873 210.083 97.8407 201.888 97.2656C200.019 101.579 196.454 118.228 198.869 141.691C195.764 154.113 202.032 185.541 205.339 200.781C200.508 201.816 163.645 195.462 145.817 192.155L139.348 211.564L194.556 232.698C209.939 237.299 242.949 247.191 251.921 249.951C263.135 253.401 263.566 249.52 267.017 239.599C270.467 229.679 262.704 194.743 260.547 183.96C258.39 173.177 244.588 137.809 235.531 118.4Z" fill="#8380FC"/>
<path d="M198.869 141.691C198.869 132.72 206.345 107.042 210.083 98.9909C208.703 97.6107 204.045 97.2656 201.888 97.2656C194.987 111.93 198.006 131.052 198.869 141.691Z" fill="#925AF5"/>
<path fill-rule="evenodd" clip-rule="evenodd" d="M159.619 33.4314C165.14 36.1918 180.035 35.1566 186.792 34.294C185.412 43.2653 191.68 49.5338 194.987 51.5466C196.856 51.1153 200.939 51.029 202.319 54.1345C203.512 56.8185 200.375 60.1211 197.327 63.3294C195.967 64.7612 194.625 66.1743 193.693 67.5052C190.674 71.8184 189.811 76.9941 189.38 80.876C188.949 84.7578 190.243 87.777 193.262 91.2275C195.677 93.9879 200.019 96.4033 201.888 97.2659C227.077 99.6813 238.55 126.451 241.138 139.535L258.39 128.321L257.528 126.164L260.116 127.027L268.742 121.851L267.448 118.832L270.036 120.557L275.643 117.106V109.343L282.975 114.518C287.116 110.378 297.065 110.205 301.522 110.637C309.187 84.659 289.942 64.1476 283.227 56.9906L282.975 56.7223C276.505 49.8213 259.684 42.9203 248.039 39.9011C236.393 36.8819 221.297 29.1182 216.984 25.6677C216.092 24.954 215.607 24.1345 214.991 23.0915C213.221 20.1001 210.365 15.2703 193.693 5.82723C171.208 -6.90851 152.718 7.9838 150.562 13.5909C148.94 17.807 150.976 24.9495 155.02 29.7007C149.211 34.0567 144.097 44.7765 139.348 55.8596C134.172 67.9364 136.76 92.9528 138.054 103.736C139.089 112.362 142.942 125.301 144.955 130.477C140.857 118.4 137.622 83.0324 139.348 67.505C140.701 55.3254 148.246 44.0856 152.064 39.7217C148.425 46.5514 143.948 56.0786 142.367 63.192C139.779 74.8375 141.935 98.1285 143.229 105.03C144.265 110.55 149.124 123.432 151.424 129.183L179.103 104.963C179.12 104.702 179.144 104.452 179.167 104.199C179.353 102.182 179.555 99.9946 176.872 90.7962C174.624 83.0883 174.07 78.3946 173.888 76.8542C173.874 76.7396 173.863 76.6425 173.853 76.5628C160.051 79.1507 155.737 75.7001 154.012 65.7799C152.632 57.8437 157.175 40.9074 159.619 33.4314Z" fill="#4211AB"/>
<circle cx="2.5" cy="2.5" r="2.5" transform="matrix(-1 0 0 1 201.367 57.6724)" fill="white"/>
<path d="M43.0479 64.8226L52.7546 97.2023C52.9787 97.9499 52.6731 98.7548 52.0093 99.1652L36.6597 108.655C35.6983 109.25 34.4345 108.774 34.103 107.694L21.1252 65.376C20.7799 64.2503 21.639 63.1171 22.8161 63.1454L41.4368 63.5933C42.1833 63.6112 42.8335 64.1074 43.0479 64.8226Z" fill="#5F5CF1"/>
<path d="M41.137 67.1458L50.38 96.4584C50.5048 96.8543 50.33 97.2829 49.964 97.4786L39.0607 103.308C38.5813 103.564 37.9873 103.318 37.8288 102.799L27.1164 67.6566C26.9474 67.1024 27.3621 66.5425 27.9415 66.5425L40.3143 66.5426C40.6908 66.5426 41.0238 66.7867 41.137 67.1458Z" fill="white"/>
<path d="M36.6245 108.668L36.9703 108.448L22.9005 63.1471L22.8181 63.1447C21.6388 63.1113 20.7746 64.2449 21.1192 65.3732L34.0504 107.715C34.3832 108.805 35.6623 109.278 36.6245 108.668Z" fill="#3A51EC"/>
</svg>
