<svg width="50" height="50" viewBox="0 0 50 50" fill="none" xmlns="http://www.w3.org/2000/svg">
<g clip-path="url(#clip0_261_26145)">
<circle cx="25" cy="25" r="24" stroke="#0F3D3E" stroke-width="2"/>
<path d="M25 25C28.8675 25 32 21.8675 32 18C32 14.1325 28.8675 11 25 11C21.1325 11 18 14.1325 18 18C18 21.8675 21.1325 25 25 25ZM25 28.5C20.3275 28.5 11 30.845 11 35.5V37.25C11 38.2125 11.7875 39 12.75 39H37.25C38.2125 39 39 38.2125 39 37.25V35.5C39 30.845 29.6725 28.5 25 28.5Z" fill="#0F3D3E"/>
</g>
<defs>
<clipPath id="clip0_261_26145">
<rect width="50" height="50" fill="white"/>
</clipPath>
</defs>
</svg>
