<svg width="50" height="50" viewBox="0 0 50 50" fill="none" xmlns="http://www.w3.org/2000/svg">
<g clip-path="url(#clip0_139_26118)">
<circle cx="25" cy="25" r="25" fill="white" fill-opacity="0.7"/>
<path d="M30.1988 25.9931C31.5781 24.9138 32.5849 23.4338 33.0791 21.759C33.5732 20.0842 33.5302 18.2979 32.956 16.6485C32.3818 14.9991 31.305 13.5688 29.8753 12.5564C28.4456 11.544 26.7342 11 24.9791 11C23.2241 11 21.5127 11.544 20.083 12.5564C18.6533 13.5688 17.5764 14.9991 17.0022 16.6485C16.428 18.2979 16.385 20.0842 16.8792 21.759C17.3734 23.4338 18.3802 24.9138 19.7595 25.9931C17.396 26.9348 15.3337 28.4967 13.7926 30.5123C12.2515 32.528 11.2893 34.9217 11.0085 37.4384C10.9882 37.6222 11.0044 37.8081 11.0564 37.9856C11.1083 38.1631 11.1949 38.3287 11.3111 38.4729C11.546 38.7642 11.8875 38.9507 12.2606 38.9916C12.6338 39.0324 13.0079 38.9241 13.3008 38.6906C13.5937 38.457 13.7813 38.1174 13.8223 37.7463C14.1312 35.0111 15.4426 32.485 17.5059 30.6507C19.5692 28.8163 22.2397 27.8022 25.0073 27.8022C27.7748 27.8022 30.4453 28.8163 32.5086 30.6507C34.5719 32.485 35.8833 35.0111 36.1922 37.7463C36.2305 38.0901 36.3954 38.4076 36.6553 38.6376C36.9151 38.8675 37.2513 38.9937 37.5991 38.9916H37.7539C38.1227 38.9494 38.4598 38.7639 38.6917 38.4756C38.9236 38.1873 39.0315 37.8195 38.992 37.4524C38.7099 34.9286 37.7425 32.5287 36.1934 30.5099C34.6444 28.4912 32.5721 26.9298 30.1988 25.9931ZM24.9791 24.9996C23.8661 24.9996 22.778 24.6714 21.8526 24.0564C20.9271 23.4414 20.2058 22.5673 19.7799 21.5446C19.3539 20.522 19.2425 19.3966 19.4596 18.311C19.6768 17.2253 20.2127 16.2281 20.9998 15.4453C21.7868 14.6626 22.7896 14.1296 23.8812 13.9136C24.9729 13.6977 26.1044 13.8085 27.1327 14.2321C28.1611 14.6557 29.04 15.3731 29.6584 16.2934C30.2767 17.2138 30.6068 18.2959 30.6068 19.4029C30.6068 20.8872 30.0139 22.3108 28.9585 23.3604C27.9031 24.41 26.4717 24.9996 24.9791 24.9996Z" fill="black"/>
</g>
<defs>
<clipPath id="clip0_139_26118">
<rect width="50" height="50" fill="white"/>
</clipPath>
</defs>
</svg>
