<svg width="40" height="40" viewBox="0 0 40 40" fill="none" xmlns="http://www.w3.org/2000/svg">
<g clip-path="url(#clip0_261_26275)">
<circle cx="20" cy="20" r="19" stroke="#0F3D3E" stroke-width="2"/>
<path d="M20 20C23.0387 20 25.5 17.5387 25.5 14.5C25.5 11.4612 23.0387 9 20 9C16.9612 9 14.5 11.4612 14.5 14.5C14.5 17.5387 16.9612 20 20 20ZM20 22.75C16.3287 22.75 9 24.5925 9 28.25V29.625C9 30.3813 9.61875 31 10.375 31H29.625C30.3813 31 31 30.3813 31 29.625V28.25C31 24.5925 23.6712 22.75 20 22.75Z" fill="#0F3D3E"/>
</g>
<defs>
<clipPath id="clip0_261_26275">
<rect width="40" height="40" fill="white"/>
</clipPath>
</defs>
</svg>
