<svg width="30" height="30" viewBox="0 0 30 30" fill="none" xmlns="http://www.w3.org/2000/svg">
<path fill-rule="evenodd" clip-rule="evenodd" d="M28 15C28 22.1797 22.1797 28 15 28C7.8203 28 2 22.1797 2 15C2 7.8203 7.8203 2 15 2C22.1797 2 28 7.8203 28 15ZM30 15C30 23.2843 23.2843 30 15 30C6.71573 30 0 23.2843 0 15C0 6.71573 6.71573 0 15 0C23.2843 0 30 6.71573 30 15ZM19.0714 10.9286C19.0714 13.178 17.2495 15 15 15C12.7505 15 10.9286 13.178 10.9286 10.9286C10.9286 8.67911 12.7505 6.85714 15 6.85714C17.2495 6.85714 19.0714 8.67911 19.0714 10.9286ZM6.85714 21.1071C6.85714 18.3996 12.2823 17.0357 15 17.0357C17.7177 17.0357 23.1429 18.3996 23.1429 21.1071V22.125C23.1429 22.6848 22.6848 23.1429 22.125 23.1429H7.875C7.31518 23.1429 6.85714 22.6848 6.85714 22.125V21.1071Z" fill="#4211AB"/>
</svg>
